<svg width="99" height="82" viewBox="0 0 99 82" fill="none" xmlns="http://www.w3.org/2000/svg">
<g clip-path="url(#clip0_107_63)">
<path d="M38.5209 50.6838C38.5209 67.3184 52.1258 80.8034 68.7604 80.8034C85.395 80.8034 99 67.3184 99 50.6838C99 34.0492 85.395 20.5642 68.7604 20.5642C52.1258 20.5642 38.5209 34.0492 38.5209 50.6838Z" fill="url(#paint0_linear_107_63)"/>
<path fill-rule="evenodd" clip-rule="evenodd" d="M68.7605 27.3225C55.8057 27.3225 45.3064 37.7815 45.3064 50.6835C45.3064 63.5855 55.8071 74.0448 68.7605 74.0448C72.4655 74.0503 76.1186 73.1776 79.418 71.4987L85.6413 73.5004L85.7926 66.7418C89.7718 62.5555 92.2131 56.9037 92.2131 50.6835C92.2131 37.7801 81.7125 27.3225 68.7591 27.3225" fill="#181A1F"/>
<path fill-rule="evenodd" clip-rule="evenodd" d="M63.4273 27.9294C53.0435 30.3345 45.3081 39.6079 45.3081 50.6822C45.3033 54.1644 46.0833 57.6034 47.5905 60.7454C57.2912 55.2914 63.842 44.9289 63.842 33.0432C63.842 31.3303 63.7038 29.6202 63.429 27.9294" fill="#14161A"/>
<path fill-rule="evenodd" clip-rule="evenodd" d="M58.0147 40.3701H66.7064V39.0655H70.8132V40.3701H80.2758V43.9285H77.7142C77.4641 45.2541 76.8328 47.178 75.7717 49.2777C74.8274 51.1457 73.5397 53.1687 71.8739 55.0573C71.7083 55.2447 71.523 55.4474 71.318 55.6656C71.9742 56.1129 72.6588 56.5176 73.3674 56.8771C74.3212 57.3606 75.3167 57.7577 76.3419 58.0637L77.0795 58.2831L76.8601 59.0174L76.0979 61.5652L75.8779 62.3011L75.1403 62.0813C73.7877 61.6778 72.4773 61.1456 71.2272 60.492C70.1392 59.9226 69.0992 59.2664 68.1174 58.5299C67.1355 59.2666 66.0954 59.923 65.0072 60.4927C63.7563 61.1463 62.4451 61.6787 61.0918 62.0823L60.3542 62.3021L60.1342 61.5662L59.372 59.0184L59.1523 58.2841L59.8898 58.0646C60.9152 57.7588 61.9107 57.3615 62.8644 56.8774C63.5735 56.5173 64.2585 56.1118 64.9151 55.6636C63.6761 54.3394 62.5714 52.8966 61.617 51.3562C60.4284 49.4444 59.5947 47.5983 59.0795 46.0968L58.7326 45.0832H63.1732L63.3659 45.569C64.4677 48.3016 66.0775 50.8024 68.1107 52.9402L68.1518 52.8973C68.3264 52.7138 68.5127 52.5092 68.709 52.2871C69.965 50.8616 71.0484 49.294 71.937 47.6166C72.6989 46.176 73.1904 44.884 73.4395 43.9295H57.2438V40.3711L58.0147 40.3701Z" fill="white"/>
<path d="M0 31.3691C0 48.0037 13.6049 61.4887 30.2396 61.4887C46.8742 61.4887 60.4791 48.0037 60.4791 31.3691C60.4791 14.7345 46.8742 1.24944 30.2396 1.24944C13.6049 1.24944 0 14.7345 0 31.3691Z" fill="url(#paint1_linear_107_63)"/>
<path fill-rule="evenodd" clip-rule="evenodd" d="M30.2396 8.00804C43.1943 8.00804 53.6936 18.4671 53.6936 31.3691C53.6936 44.2711 43.1929 54.7301 30.2396 54.7301C26.5346 54.7357 22.8814 53.8631 19.582 52.1843L13.3574 54.1857L13.2061 47.4274C9.22655 43.2411 6.78552 37.5893 6.78552 31.3691C6.78552 18.4657 17.2862 8.00804 30.2396 8.00804Z" fill="#181A1F"/>
<path fill-rule="evenodd" clip-rule="evenodd" d="M27.5849 34.4702H32.8425L30.2048 26.0122L27.5849 34.4702ZM34.2532 38.993H26.1732L24.7629 43.5491H18.4638L27.4356 19.1887H32.9744L42.0167 43.5521H35.6809L34.2532 38.993Z" fill="white"/>
<path d="M34.7787 71.0611C24.4764 72.2653 19.1913 69.9184 16.3603 62.0048C16.0148 72.2733 24.2013 80.6807 35.6144 79.2727L35.8919 81.9997L44.1388 73.6002L34.4983 68.3035L34.7787 71.0611Z" fill="#181A1F"/>
<path d="M64.2203 10.9386C74.5229 9.73603 79.808 12.0816 82.6383 19.9952C82.9839 9.72672 74.7971 1.31927 63.3842 2.72699L63.1064 0L54.8595 8.39947L64.5001 13.6962L64.2203 10.9386Z" fill="#181A1F"/>
</g>
<defs>
<linearGradient id="paint0_linear_107_63" x1="72.2305" y1="82.6654" x2="65.9724" y2="24.5286" gradientUnits="userSpaceOnUse">
<stop stop-color="#FF6600"/>
<stop offset="1" stop-color="#F2873A"/>
</linearGradient>
<linearGradient id="paint1_linear_107_63" x1="26.7568" y1="-0.622877" x2="32.6021" y2="53.5006" gradientUnits="userSpaceOnUse">
<stop stop-color="#0080FF"/>
<stop offset="1" stop-color="#004284"/>
</linearGradient>
<clipPath id="clip0_107_63">
<rect width="99" height="82" fill="white"/>
</clipPath>
</defs>
</svg>
